<svg width="128" height="128" viewBox="0 0 128 128" fill="none" xmlns="http://www.w3.org/2000/svg">
<path fill-rule="evenodd" clip-rule="evenodd" d="M0 64C0 28.6211 28.7801 0 64 0C99.2199 0 128 28.6211 128 64C128 99.3789 99.3789 128 64 128C28.6211 128 0 99.3789 0 64ZM68.5317 107.409V118.38C96.5963 115.916 118.619 92.0646 118.221 63.682C118.221 55.4137 116.393 47.5429 112.894 40.2286L103.434 45.7938C105.978 51.518 107.329 57.5603 107.329 63.682C107.329 70.4398 105.898 76.7205 103.036 82.6832L102.877 83.0012L99.8559 81.5702C96.9938 80.1391 95.5627 76.8795 96.4373 73.8584C97.4708 70.5988 98.0273 67.1006 98.0273 63.682C98.0273 48.0994 87.6124 34.3453 72.6658 30.3702C69.4857 29.4957 67.4981 26.4745 67.9752 23.3739L68.3727 20.1143H68.6907C80.6957 21.5453 91.7466 27.9851 98.9019 37.6845L108.363 32.2783C98.0273 17.8087 81.4907 9.06335 63.682 9.06335C45.7938 9.06335 29.0186 17.9677 18.7627 32.6758L28.2236 38.082C35.5379 28.0646 46.5093 21.4658 58.8323 20.1938H59.1503L59.5478 23.4534C59.9453 26.713 57.9578 29.5751 54.8571 30.4497C39.8311 34.4248 29.4161 48.1789 29.4161 63.7615C29.4161 67.0211 29.9727 70.3602 30.8472 73.4609C31.7217 76.482 30.2907 79.7416 27.4286 81.0137L24.3279 82.6037L24.1689 82.2857C21.6248 76.5615 20.1938 70.2807 20.1938 63.841C20.1938 57.7987 21.4658 51.836 23.9304 46.2708L14.4696 40.8646C11.0509 48.1789 9.30186 55.8907 9.30186 63.9205C9.30186 92.1441 31.1652 115.836 59.2298 118.301V107.409C47.4633 106.296 36.8894 100.412 29.4957 90.9515L29.3366 90.7925L31.8807 88.805C34.3453 86.8174 37.923 86.9764 40.1491 89.123C46.4298 95.2447 54.8571 98.5839 63.7615 98.5839C72.3478 98.5839 80.7752 95.3242 87.0559 89.441C89.3615 87.2944 93.0981 87.1354 95.4832 89.123L98.0273 91.1106L97.8683 91.2696C90.713 100.412 80.2186 106.137 68.5317 107.409Z" fill="black"/>
<path fill-rule="evenodd" clip-rule="evenodd" d="M53.1118 83.8758C49.5342 82.6832 49.096 80.2505 49.0147 79.9166C48.9333 79.5826 48.974 78.9148 49.1367 77.913C49.5342 75.9255 49.1551 77.7201 49.7245 75.1322C50.2938 72.5026 50.9648 69.7269 51.7375 66.8051C52.5101 63.8832 53.3438 60.9614 54.2385 58.0396C55.1331 55.1178 56.0481 52.4047 56.9835 49.9003C57.9188 47.3542 58.8134 45.2254 59.6674 43.5141C59.9114 43.0967 60.1351 42.7628 60.3384 42.5123C60.5824 42.2619 60.8671 42.1366 61.1924 42.1366H67.2597C67.4664 42.1718 67.7608 42.2219 68.0547 42.5123C68.2516 42.7068 68.5531 43.0967 68.7564 43.5141C69.6511 45.2254 70.5661 47.3542 71.5014 49.9003C72.4367 52.4047 73.3517 55.1178 74.2464 58.0396C75.1411 60.9614 75.9747 63.8832 76.7474 66.8051C77.5201 69.7269 78.1911 72.5026 78.7604 75.1322L79.2872 77.913C79.4499 78.9148 79.4905 79.5826 79.4092 79.9166C79.3279 80.2505 78.8897 82.6832 75.3121 83.8758C74.5459 84.1938 72.2946 84.6708 71.102 84.2733L70.8304 82.2698C70.6677 81.3515 70.4644 80.2662 70.2204 79.014C69.9764 77.7618 69.7731 76.7392 69.6104 75.9461C69.5698 75.6122 69.5088 75.4244 69.4274 75.3827C69.3868 75.3409 69.2241 75.32 68.9394 75.32H59.5454C59.2608 75.32 59.0981 75.3409 59.0574 75.3827C59.0168 75.4244 58.9558 75.6122 58.8744 75.9461C58.7118 76.7392 58.4881 77.7618 58.2034 79.014C57.9594 80.2662 57.7561 81.3515 57.5934 82.2698L57.3218 84.2733C56.1293 84.6708 53.878 84.1938 53.1118 83.8758ZM66.9874 68.1199H61.4974C61.2128 68.1199 61.0501 68.0781 61.0094 67.9947C60.9688 67.8694 60.9688 67.6607 61.0094 67.3685C61.2941 66.1998 61.5788 65.0102 61.8634 63.7998C62.1888 62.5476 62.5141 61.3371 62.8394 60.1684C63.1648 58.9997 63.4494 57.9561 63.6934 57.0379C63.8154 56.6622 63.9374 56.4744 64.0594 56.4744H64.3034C64.4661 56.4744 64.5881 56.6622 64.6694 57.0379C65.0761 58.457 65.5234 60.1266 66.0114 62.0467C66.5401 63.925 67.0078 65.6989 67.4144 67.3685C67.4958 67.6607 67.5161 67.8694 67.4754 67.9947C67.4348 68.0781 67.2721 68.1199 66.9874 68.1199Z" fill="black"/>
</svg>
